<?xml version="1.0" encoding="UTF-8" standalone="no"?>
<svg width="18px" height="18px" viewBox="0 0 18 18" version="1.1" xmlns="http://www.w3.org/2000/svg" xmlns:xlink="http://www.w3.org/1999/xlink" xmlns:sketch="http://www.bohemiancoding.com/sketch/ns">
    <g id="Events" stroke="none" stroke-width="1" fill="none" fill-rule="evenodd" sketch:type="MSPage">
        <g sketch:type="MSArtboardGroup" transform="translate(-968.000000, -30.000000)" id="Header" stroke="#2C2537" fill="#2C2537">
            <g sketch:type="MSLayerGroup">
                <path d="M985,43.16 L985,43.8 L970.92,43.8 L970.92,39.64 L970.92,35.48 L970.92,31.96 C970.92,31.84672 970.95008,31.74176 970.9872,31.64064 L969,31.64064 L969,31 L971.92352,31 L971.92544,31 L983.99328,31 C984.5488,31 984.99936,31.43008 984.99936,31.96 L984.99936,39.64 C984.99936,40.17056 984.5488,40.6 983.99328,40.6 L972.52,40.6 L972.52,40.60192 L971.56,40.60192 L971.56,43.16 L985,43.16 L985,43.16 Z M984.36,39.44032 L984.36,32.16032 C984.36,31.8736 984.12128,31.64 983.82624,31.64 L972.09312,31.64 C971.79872,31.64 971.56,31.87296 971.56,32.16032 L971.56,39.44032 L971.56,39.4416 L971.56,39.96192 L972.52,39.96192 L972.52,39.96 L983.82624,39.96 C984.12128,39.96 984.36,39.72768 984.36,39.44032 L984.36,39.44032 Z M973.8,45.08 C974.32992,45.08 974.76,45.51008 974.76,46.04 C974.76,46.57056 974.32992,47 973.8,47 C973.27008,47 972.84,46.57056 972.84,46.04 C972.84,45.51008 973.27008,45.08 973.8,45.08 L973.8,45.08 Z M980.84,45.08 C981.36992,45.08 981.8,45.51008 981.8,46.04 C981.8,46.57056 981.36992,47 980.84,47 C980.31008,47 979.88,46.57056 979.88,46.04 C979.88,45.51008 980.31008,45.08 980.84,45.08 L980.84,45.08 Z" id="Shape" sketch:type="MSShapeGroup"></path>
            </g>
        </g>
    </g>
</svg>
