<?xml version="1.0" encoding="UTF-8" standalone="no"?>
<svg width="15px" height="16px" viewBox="0 0 15 16" version="1.1" xmlns="http://www.w3.org/2000/svg" xmlns:xlink="http://www.w3.org/1999/xlink" xmlns:sketch="http://www.bohemiancoding.com/sketch/ns">
    <!-- Generator: Sketch Beta 3.4 (15510) - http://www.bohemiancoding.com/sketch -->
    <title>Shape</title>
    <desc>Created with Sketch Beta.</desc>
    <defs></defs>
    <g id="Events" stroke="none" stroke-width="1" fill="none" fill-rule="evenodd" sketch:type="MSPage">
        <g sketch:type="MSArtboardGroup" transform="translate(-712.000000, -284.000000)" id="Shape" fill="#4A4A4A">
            <path d="M726,300 L713,300 C712.447,300 712,299.553 712,299 L712,289.001 L712,288 L712,286 C712,285.448 712.447,285 713,285 L716,285 L716,284 L717,284 L717,285 L722,285 L722,284 L723,284 L723,285 L726.5,285 C727.052,285 727,285.448 727,286 L727,288 L727,289.001 L727,299 C727,299.553 726.552,300 726,300 L726,300 Z M726,286.501 C726,286.225 725.776,286 725.5,286 L723,286 L723,287.001 L722,287.001 L722,286 L717,286 L717,287.001 L716,287.001 L716,286 L713.5,286 C713.224,286 713,286.225 713,286.501 L713,288 L726,288 L726,286.501 L726,286.501 Z M726,289.001 L713,289.001 L713,298.5 C713,298.777 713.224,299 713.5,299 L725.5,299 C725.776,299 726,298.777 726,298.5 L726,289.001 L726,289.001 Z M722,295 L725,295 L725,298 L722,298 L722,295 L722,295 Z M723,297.001 L724,297.001 L724,296 L723,296 L723,297.001 L723,297.001 Z M722,291 L725,291 L725,294 L722,294 L722,291 L722,291 Z M723,293 L724,293 L724,292 L723,292 L723,293 L723,293 Z M718,295 L721,295 L721,298 L718,298 L718,295 L718,295 Z M719,297.001 L720,297.001 L720,296 L719,296 L719,297.001 L719,297.001 Z M718,291 L721,291 L721,294 L718,294 L718,291 L718,291 Z M719,293 L720,293 L720,292 L719,292 L719,293 L719,293 Z M714,295 L717,295 L717,298 L714,298 L714,295 L714,295 Z M715,297.001 L716,297.001 L716,296 L715,296 L715,297.001 L715,297.001 Z M714,291 L717,291 L717,294 L714,294 L714,291 L714,291 Z M715,293 L716,293 L716,292 L715,292 L715,293 L715,293 Z" sketch:type="MSShapeGroup"></path>
        </g>
    </g>
</svg>