<?xml version="1.0" encoding="UTF-8" standalone="no"?>
<svg width="14px" height="18px" viewBox="0 0 14 18" version="1.1" xmlns="http://www.w3.org/2000/svg" xmlns:xlink="http://www.w3.org/1999/xlink" xmlns:sketch="http://www.bohemiancoding.com/sketch/ns">
    <!-- Generator: Sketch Beta 3.4 (15510) - http://www.bohemiancoding.com/sketch -->
    <title>Shape</title>
    <desc>Created with Sketch Beta.</desc>
    <defs></defs>
    <g id="Events" stroke="none" stroke-width="1" fill="none" fill-rule="evenodd" sketch:type="MSPage">
        <g sketch:type="MSArtboardGroup" transform="translate(-712.000000, -236.000000)" id="Shape" stroke="#4A4A4A" fill="#4A4A4A">
            <path d="M719.641654,252.359386 L723.559578,252.359386 C723.736211,252.359386 723.879565,252.50274 723.879565,252.680013 C723.879565,252.856006 723.736211,252.99936 723.559578,252.99936 L719.079757,252.99936 L719.079757,253 L719.079757,252.99936 L714.599936,252.99936 C714.423303,252.99936 714.279949,252.856006 714.279949,252.680013 C714.279949,252.50274 714.423303,252.359386 714.599936,252.359386 L718.517219,252.359386 C717.01136,250.609056 713,245.691492 713,242.99976 C713,239.686613 715.721811,237 719.079757,237 C722.437702,237 725.159514,239.686613 725.159514,242.99976 C725.159514,245.691492 721.147514,250.609056 719.641654,252.359386 L719.641654,252.359386 Z M719.079757,237.639974 C716.080197,237.639974 713.639974,240.044358 713.639974,242.99976 C713.639974,245.301748 717.211672,249.886525 719.079757,252.035559 C720.947842,249.885245 724.519539,245.299828 724.519539,242.99976 C724.519539,240.044358 722.079317,237.639974 719.079757,237.639974 L719.079757,237.639974 Z M719.079757,244.680333 C717.842686,244.680333 716.839846,243.676853 716.839846,242.439142 C716.839846,241.202712 717.842686,240.199232 719.079757,240.199232 C720.316827,240.199232 721.319667,241.202712 721.319667,242.439142 C721.319667,243.676853 720.316827,244.680333 719.079757,244.680333 L719.079757,244.680333 Z M719.079757,240.839846 C718.195952,240.839846 717.479821,241.556618 717.479821,242.439142 C717.479821,243.322947 718.195952,244.039078 719.079757,244.039078 C719.962921,244.039078 720.679693,243.322947 720.679693,242.439142 C720.679693,241.556618 719.962921,240.839846 719.079757,240.839846 L719.079757,240.839846 Z" sketch:type="MSShapeGroup"></path>
        </g>
    </g>
</svg>