<?xml version="1.0" encoding="UTF-8" standalone="no"?>
<svg width="18px" height="18px" viewBox="0 0 18 18" version="1.1" xmlns="http://www.w3.org/2000/svg" xmlns:xlink="http://www.w3.org/1999/xlink" xmlns:sketch="http://www.bohemiancoding.com/sketch/ns">
    <!-- Generator: Sketch Beta 3.4 (15510) - http://www.bohemiancoding.com/sketch -->
    <title>Shape</title>
    <desc>Created with Sketch Beta.</desc>
    <defs></defs>
    <g id="Events" stroke="none" stroke-width="1" fill="none" fill-rule="evenodd" sketch:type="MSPage">
        <g sketch:type="MSArtboardGroup" transform="translate(-711.000000, -187.000000)" id="Shape" stroke="#4A4A4A" fill="#000000">
            <path d="M727.909586,203.910227 C727.790529,204.029924 727.59722,204.029924 727.478162,203.910227 L724.431945,200.86465 C724.581727,200.725749 724.725109,200.582367 724.86337,200.433225 L727.909586,203.479442 C728.028644,203.5985 728.028644,203.791809 727.909586,203.910227 L727.909586,203.910227 Z M719.041056,202.082112 C715.152473,202.082112 712,198.929639 712,195.041056 C712,191.152473 715.152473,188 719.041056,188 C722.929639,188 726.082112,191.152473 726.082112,195.041056 C726.082112,198.928999 722.929639,202.082112 719.041056,202.082112 L719.041056,202.082112 Z M719.041056,188.640096 C715.505806,188.640096 712.640096,191.505806 712.640096,195.041056 C712.640096,198.576306 715.506446,201.442016 719.041056,201.442016 C722.575666,201.442016 725.442016,198.576306 725.442016,195.041056 C725.442016,191.505806 722.575666,188.640096 719.041056,188.640096 L719.041056,188.640096 Z" sketch:type="MSShapeGroup"></path>
        </g>
    </g>
</svg>